<svg id="Layer_1" data-name="Layer 1" xmlns="http://www.w3.org/2000/svg" viewBox="0 0 405.45 139.6"><defs><style>.cls-1{fill:#003e7e;}.cls-2{fill:#79bde8;fill-rule:evenodd;}</style></defs><title>Elite Travel Agency Subbrand Logo</title><path class="cls-1" d="M82,95.09H66c-.86,0-1.16-.22-1.16-1.16V66.32c0-.69.3-1.08,1-1.08H82.13c.69,0,.91.26.91.73v.26l-.3,2.59c-.09.78-.56.91-1.47.91H70.44v7.81h10c.82,0,1.08.34,1.08.95v2.46c0,.73-.3,1-1,1h-10v8.63H82c.73,0,1.08.3,1.08,1v2.46C83.08,94.75,82.78,95.09,82,95.09Z"/><path class="cls-1" d="M90.2,95.09H86.92a.9.9,0,0,1-1-1V65.76c0-.73.3-.95.86-1l3.11-.43c.09,0,.22,0,.3,0a.86.86,0,0,1,.95.95V94C91.15,94.75,90.8,95.09,90.2,95.09Z"/><path class="cls-1" d="M97.79,71.41a2.72,2.72,0,1,1,2.89-2.72A2.77,2.77,0,0,1,97.79,71.41Zm1.55,23.68h-3c-.78,0-1.12-.3-1.12-1.08V75.17c0-.73.43-1,1.12-1h3c.69,0,1.08.22,1.08,1V94C100.42,94.79,100.07,95.09,99.34,95.09Z"/><path class="cls-1" d="M116.76,94.62a13,13,0,0,1-4.83,1c-2.2,0-4.1-.56-5.18-1.81-1.34-1.51-1.38-3.28-1.38-6.43V77.75h-2c-.82,0-.95-.17-.95-1.08V75c0-.52.26-.86.78-.86h2.2v-4.7c0-.73.39-.95,1.08-1l3.11-.39h.22c.56,0,.82.3.82.95v5.18h4.87c.52,0,.82.17.82.73v2a.78.78,0,0,1-.86.82H110.6v9.88a5.16,5.16,0,0,0,.56,2.93,2.24,2.24,0,0,0,2,.91,8.48,8.48,0,0,0,2.76-.52,1.91,1.91,0,0,1,.43-.09c.3,0,.47.17.56.52l.43,2.16a.64.64,0,0,1,0,.26C117.41,94.23,117.2,94.45,116.76,94.62Z"/><path class="cls-1" d="M135.61,85.82H123a6,6,0,0,0,6.17,5.61,15.47,15.47,0,0,0,5.31-1,1.94,1.94,0,0,1,.47-.13.6.6,0,0,1,.6.52l.6,2.2a3.14,3.14,0,0,1,.09.52c0,.3-.17.52-.69.73a19.16,19.16,0,0,1-7.25,1.38c-6.77,0-10.78-4.31-10.78-11,0-6.47,4.27-11,10.7-11a8.46,8.46,0,0,1,6.3,2.59c2,2.07,2.54,4.79,2.54,7.72v.65C137,85.6,136.69,85.82,135.61,85.82Zm-3.71-3.88c-.09-2.24-1.38-4.31-4-4.31-2.8,0-4.49,2.24-4.83,4.79h8.84Z"/><path class="cls-1" d="M166.15,68.82c-.09.73-.56.91-1.34.91H157V94.1c0,.82-.17,1-.91,1h-3.8c-.78,0-.91-.17-.91-.95V69.73h-8.07c-.73,0-1-.3-1-1V66.15c0-.65.3-.91.95-.91h21.83c1.12,0,1.42.35,1.34,1.08Z"/><path class="cls-1" d="M176.84,74.73l-.47,3.06a.55.55,0,0,1-.6.56h-.17a5.1,5.1,0,0,0-1.17-.13,5.61,5.61,0,0,0-4.14,2.07V94c0,.69-.3,1.08-1,1.08H166.1c-.69,0-1-.34-1-1.08V75.25c0-.86.43-1.08,1.08-1.08h2.76c.69,0,1.08.22,1.08.82l0,1.38a6.21,6.21,0,0,1,5.22-2.76,6.28,6.28,0,0,1,1.21.17.49.49,0,0,1,.43.56A1.19,1.19,0,0,1,176.84,74.73Z"/><path class="cls-1" d="M197.37,95.09H195.3c-2.24,0-3.24-1.08-3.54-2.54h-.09a8.43,8.43,0,0,1-6.25,3.06c-6.08,0-8.84-5-8.84-10.61,0-7.46,4.49-11.39,9.32-11.39a7,7,0,0,1,5.52,2.5L191.5,75a.83.83,0,0,1,.91-.78h3a.83.83,0,0,1,.91.95v15a2.16,2.16,0,0,0,.26,1.25.69.69,0,0,0,.52.17h.34c.52,0,.78.17.78.73v2A.78.78,0,0,1,197.37,95.09Zm-6.25-15a5.52,5.52,0,0,0-4.27-2.2c-2.63,0-4.87,2.24-4.87,6.77,0,3.62,1.38,6.69,4.57,6.69a5.47,5.47,0,0,0,4.57-2.93Z"/><path class="cls-1" d="M217.28,75.21l-7.55,19.07a1.13,1.13,0,0,1-1.25.82h-2.24a1.16,1.16,0,0,1-1.29-.78l-7.42-19.24a1.26,1.26,0,0,1-.09-.39c0-.35.22-.52.78-.52H202a1.13,1.13,0,0,1,1.25.86l3.28,10.05c.43,1.29.82,2.72,1.08,3.67h0c.22-.82.65-2.33,1-3.54l3.36-10.14c.22-.73.56-.91,1.34-.91h3.11c.56,0,.86.22.86.6A1.9,1.9,0,0,1,217.28,75.21Z"/><path class="cls-1" d="M234.62,85.82H222a6,6,0,0,0,6.17,5.61,15.46,15.46,0,0,0,5.31-1,2,2,0,0,1,.47-.13.6.6,0,0,1,.6.52l.6,2.2a3.17,3.17,0,0,1,.09.52c0,.3-.17.52-.69.73a19.16,19.16,0,0,1-7.25,1.38c-6.77,0-10.78-4.31-10.78-11,0-6.47,4.27-11,10.7-11a8.46,8.46,0,0,1,6.3,2.59c2,2.07,2.55,4.79,2.55,7.72v.65C236,85.6,235.69,85.82,234.62,85.82Zm-3.71-3.88c-.09-2.24-1.38-4.31-4-4.31-2.8,0-4.49,2.24-4.83,4.79h8.84Z"/><path class="cls-1" d="M242.51,95.09h-3.28a.9.9,0,0,1-1-1V65.76c0-.73.3-.95.86-1l3.11-.43c.09,0,.21,0,.3,0a.86.86,0,0,1,.95.95V94C243.46,94.75,243.11,95.09,242.51,95.09Z"/><path class="cls-1" d="M279.77,95.09h-3.84a1.32,1.32,0,0,1-1.47-1l-2.24-6.34H261.31l-2.24,6.47a1.1,1.1,0,0,1-1.17.91h-3.84c-.43,0-.6-.22-.6-.56a1,1,0,0,1,.09-.47l10.52-28a1.17,1.17,0,0,1,1.17-.86h3.45a1.17,1.17,0,0,1,1.21.78l10.57,27.82a1.38,1.38,0,0,1,.09.56C280.55,94.84,280.33,95.09,279.77,95.09ZM267.69,74.43c-.39-1.21-.65-2.11-.86-2.8h-.09c-.22.73-.47,1.64-.91,2.85l-3.06,9.06h8Z"/><path class="cls-1" d="M290.29,104.54a16,16,0,0,1-6.38-1.34c-.47-.22-.69-.47-.69-.86a2.1,2.1,0,0,1,.13-.56l.6-1.9c.17-.47.34-.78.65-.78a1.79,1.79,0,0,1,.65.17,13.33,13.33,0,0,0,4.83,1.12c4.31,0,5.22-2.29,5.22-5.74V92.94a9,9,0,0,1-5.61,2.2,8.41,8.41,0,0,1-6.34-2.46,11,11,0,0,1-2.72-7.81c0-5.78,3.36-11.22,9.62-11.22a7.92,7.92,0,0,1,3.11.69,5.39,5.39,0,0,1,2.2,1.73l.09-1.12c0-.56.34-.78,1-.78h2.85c.78,0,1,.3,1,1V93.67C300.52,100.66,297.54,104.54,290.29,104.54Zm5-24.59a5.53,5.53,0,0,0-4.18-2.11,4.57,4.57,0,0,0-3.19,1.25,7.77,7.77,0,0,0-1.85,5.48,7.19,7.19,0,0,0,1.72,5.18,4.3,4.3,0,0,0,3.06,1.16,6.29,6.29,0,0,0,4.44-2.07Z"/><path class="cls-1" d="M321.09,85.82H308.45a6,6,0,0,0,6.17,5.61,15.46,15.46,0,0,0,5.31-1,2,2,0,0,1,.47-.13.6.6,0,0,1,.6.52l.6,2.2a3.17,3.17,0,0,1,.09.52c0,.3-.17.52-.69.73a19.16,19.16,0,0,1-7.25,1.38c-6.77,0-10.78-4.31-10.78-11,0-6.47,4.27-11,10.7-11A8.46,8.46,0,0,1,320,76.2c2,2.07,2.54,4.79,2.54,7.72v.65C322.51,85.6,322.17,85.82,321.09,85.82Zm-3.71-3.88c-.09-2.24-1.38-4.31-4-4.31-2.8,0-4.49,2.24-4.83,4.79h8.84Z"/><path class="cls-1" d="M342.44,95.09h-3.11c-.78,0-1-.39-1-1.12V82.24c0-2.37-.65-4.05-3.28-4.05a8.55,8.55,0,0,0-5.09,2.07V94c0,.73-.3,1.08-1,1.08h-3.15a.93.93,0,0,1-1-1V75.25a.94.94,0,0,1,1.08-1.08h2.8c.6,0,1,.17,1,.82l0,1.12a11.26,11.26,0,0,1,7-2.5c4.83,0,6.82,3,6.82,7.72V94C343.48,94.71,343.22,95.09,342.44,95.09Z"/><path class="cls-1" d="M362.32,94.32a14.16,14.16,0,0,1-6.25,1.29c-6.64,0-10.31-4.14-10.31-10.78s4-11.22,10.7-11.22a14.18,14.18,0,0,1,5.78,1.21c.34.17.52.26.52.6a2.18,2.18,0,0,1-.09.52l-.56,2.29c-.09.39-.26.6-.52.6a1.29,1.29,0,0,1-.47-.17,10.78,10.78,0,0,0-4.14-.95c-3.71,0-5.82,2.63-5.82,6.86s1.9,7,5.61,7a10.89,10.89,0,0,0,4.53-.95,1.65,1.65,0,0,1,.43-.13c.26,0,.43.21.52.52l.56,1.9a2.92,2.92,0,0,1,.13.73C362.93,94,362.71,94.15,362.32,94.32Z"/><path class="cls-1" d="M383.54,75.21,375,97.55c-1.94,5.13-4.36,6.94-9.53,6.94a9.84,9.84,0,0,1-2.29-.21.68.68,0,0,1-.65-.73c0-.13,0-.22,0-.39l.3-2.24c.09-.56.3-.78.78-.78H364c.52,0,1,.13,1.47.13,2.67,0,3.8-.95,4.66-3l.82-1.94-7.85-20.23a1,1,0,0,1-.09-.34.6.6,0,0,1,.65-.6h4.14a1.06,1.06,0,0,1,1.08.73l4.79,14.28,4.53-14a1.19,1.19,0,0,1,1.29-1h3.49a.62.62,0,0,1,.69.6A1.91,1.91,0,0,1,383.54,75.21Z"/><path class="cls-2" d="M71.28,47.47h-.12s.1,0,.12,0-.12,0-.12,0,.11,0,.12,0c-.71.09-.05,0,0,0a10.5,10.5,0,0,1-1.9-.08,6.18,6.18,0,0,1-.69-.08c-.47-.08-1-.15-1.44-.26s-.89-.18-1.33-.27-.73-.18-1.09-.24-1-.25-1.27.1a.28.28,0,0,0-.07.16c0,.11.1.1.19.12s.44.08.66.12a17.46,17.46,0,0,1,4.31,1.37l.67.32c.51.26,1,.54,1.52.79A10.12,10.12,0,0,0,74,50.68a7.92,7.92,0,0,0,1.07.06,4.5,4.5,0,0,0,1.31-.24,5.82,5.82,0,0,0,.76-.3,2.84,2.84,0,0,1,.63-.32c0,.21-.23.33-.31.52A1.91,1.91,0,0,1,77,51c-.09.08-.36.25-.1.32a1.89,1.89,0,0,0,.69,0,4.49,4.49,0,0,0,1.76-.58,4.9,4.9,0,0,0,.71-.54,2,2,0,0,0,.3-.31c.06-.08.08-.2.17-.26a1.82,1.82,0,0,1-1,1.7,3.46,3.46,0,0,1-1.15.45,5.14,5.14,0,0,0-1.15.3c.09.16.75.06.89.06A6.3,6.3,0,0,0,79.44,52a3.69,3.69,0,0,0,1.18-.5,1.5,1.5,0,0,0,.44-.38c.08-.12.26-.29.28-.43.12.18-.07.51-.15.67a2.21,2.21,0,0,1-.58.71,3.6,3.6,0,0,1-1.74.67,7.13,7.13,0,0,1-2.17.08,4.92,4.92,0,0,1-1.26-.14c-.41-.13-.8-.33-1.2-.49a28,28,0,0,1-2.69-1.26c-.83-.42-1.67-.81-2.52-1.2a22.53,22.53,0,0,0-4-1.37c-.62-.16-1.27-.24-1.91-.33a12.75,12.75,0,0,0-2.09-.24,7,7,0,0,1-.76,0c-.08,0-.12,0-.11-.08a.54.54,0,0,1,.15-.23l.19-.26a1.44,1.44,0,0,1,.8-.55,7.59,7.59,0,0,0,1-.23c.29-.12.5-.42.78-.5.57-.16,1.11.19,1.7-.1a.89.89,0,0,0,.5-1.19c-.07-.16-.32-.17-.21-.41s.34-.15.49-.07a1.38,1.38,0,0,1,.29.22c.1.09.23.16.34.24a9.83,9.83,0,0,0,.79.62,21.33,21.33,0,0,0,2.33,1.44c.4.2.81.39,1.23.55l.36.15a1.69,1.69,0,0,1,.35.14"/><path class="cls-2" d="M50.69,66.41c-.48-.59.14,0,0,0A4.14,4.14,0,0,1,50,64.46c-.15-.86-.31-1.71-.52-2.55s-.41-1.66-.63-2.49c-.11-.42-.22-.83-.34-1.24-.06-.2-.16-.78-.4-.86,0,.06,0,.12,0,.18l0-.12c0,.5.11,1,.16,1.48s.06,1.1.06,1.65A18.12,18.12,0,0,1,48,63.62a8.43,8.43,0,0,1-.84,2.6,11.16,11.16,0,0,1-1.77,2.44c0-.07,0-.08,0,0l-.06.07s-.06.13-.13.13c.15-.17.12-.49.18-.69a2.62,2.62,0,0,0,.1-.48c0-.2.09-.38.13-.57.07-.35,0-.73.08-1.08s.08-.83.12-1.24.09-.73.09-1.11,0-.67,0-1,0-.72,0-1.09c0-.17,0-.34,0-.51s-.05-.36-.06-.55c0-.81-.13-1.62-.15-2.43s-.08-1.69-.16-2.53a48.09,48.09,0,0,0-.78-5c-.33-1.65-.67-3.31-1-5-.46-2.65-.81-5.69.95-8A3.1,3.1,0,0,1,45.4,37a7.45,7.45,0,0,1,1.88-.9,7.71,7.71,0,0,0-1.71-.3,4.1,4.1,0,0,0-2.94.7c-1.12,1.06-1,3.1-.88,4.5.07.74.14,1.5.25,2.23.15,1,.31,2,.46,3s.39,1.71.58,2.58c.33,1.54.8,3,1,4.58.09.55.16,1.1.22,1.65,0,.32.07.64.09,1a2,2,0,0,1,0,.71c-.25.73-1-.53-1.21-.72a3.71,3.71,0,0,1,.59,3c-.08.29-.26.75-.64.59s-.39-.6-.64-.84c.35,1.26,1,3.17-.09,4.26-.06.06-.17.19-.27.17s-.1-.29-.11-.35c-.14-.44-.27-.88-.41-1.32s-.22-.63-.31-1c0-.13-.13-.55-.32-.55,0,.65.28,1.29.35,1.93A14.32,14.32,0,0,1,41.5,64,4.1,4.1,0,0,1,41,65.89c-.07.14-.29.54-.48.35s-.19-.47-.28-.71a2.72,2.72,0,0,1-.19-.78,3,3,0,0,0-.12-.39l-.11-.44c-.17-.66-.38-1.3-.57-2s-.4-1.18-.56-1.78c-.09-.33-.16-.66-.24-1,0-.09-.13-.62-.25-.64a2.81,2.81,0,0,0,.14.89c.06.38.13.76.2,1.14a10,10,0,0,1,.17,1.07c0,.4.05.8.08,1.2,0,.77.07,1.53.07,2.3,0,.39,0,.78,0,1.17a2.34,2.34,0,0,1-.19.94,20.22,20.22,0,0,1-.72-2.15,18.64,18.64,0,0,1-.62-2.37c-.17-.81-.32-1.63-.5-2.44-.08-.38-.18-.77-.29-1.14-.05-.18-.12-.36-.17-.54s-.1-.32-.14-.13a5.38,5.38,0,0,0,0,.93c0,.41,0,.81,0,1.21,0,.83.07,1.65.08,2.48a17.29,17.29,0,0,1-.1,2.41,8.57,8.57,0,0,1-.22,1.13c-.11.4-.28.77-.38,1.17-.17-.34-.27-.71-.41-1.07a9.41,9.41,0,0,1-.41-1.14c-.08-.31-.24-.59-.3-.9a2.55,2.55,0,0,0-.09-.47,1.6,1.6,0,0,1-.15-.47,1.87,1.87,0,0,0-.12-.41c0-.17-.1-.35-.14-.52-.1-.36-.1-.73-.18-1.09-.16-.66-.21-1.33-.34-2a11.44,11.44,0,0,1-.12-1.15c0-.44-.09-.89-.13-1.33-.08-.85-.14-1.71-.17-2.56-.06-1.69-.05-3.39,0-5.08,0-.39,0-.77,0-1.16,0-.12,0-.21.15-.2a2.89,2.89,0,0,0,.58-.06c0,.86,0,1.72,0,2.58a3.22,3.22,0,0,0,.1,1.09c.12.3.24-.31.25-.37.13-.8.13-1.62.21-2.42,0-.21,0-.41.07-.62s0-.36.09-.44a1.52,1.52,0,0,1,.38-.13c.21-.08.42-.16.64-.23a13.26,13.26,0,0,1,2.36-.49,11.25,11.25,0,0,1,2.47-.1,5.6,5.6,0,0,1,1.05.16c.16.05.42.19.59.09s0-.51-.12-.63a2,2,0,0,0-.92-.46,7.62,7.62,0,0,0-2.37-.09,10.41,10.41,0,0,0-2.36.48c-.78.25-1.57.48-2.36.66s-1.56.39-2.34.55a18.56,18.56,0,0,1-4.73.12,31.17,31.17,0,0,1-5-.55,24.64,24.64,0,0,0-3.79-.66,21,21,0,0,0-4,.08c-.62.07-1.24.15-1.85.27-.31.06-.63.13-.94.16s-.57.11-.85.15a14.05,14.05,0,0,1-1.92.14c-.24,0-.64-.09-.85.06a.73.73,0,0,0-.23.53L6.89,48a3.2,3.2,0,0,1,.53-.89,2.41,2.41,0,0,1,.83-.59,4,4,0,0,1,.85-.24c.38-.1.79-.17,1.18-.23.78-.11,1.57-.13,2.36-.2s1.67-.12,2.51-.14a26.54,26.54,0,0,0,4.76-.57c.36-.07.71-.18,1.06-.28a3.34,3.34,0,0,0,1-.42c.27-.19.5-.41.78-.58a4.74,4.74,0,0,1,1.07-.48c1.57-.47,3.23.2,4.71.71s3.08,0,4.51-.39a18.35,18.35,0,0,0,4.44-1.9c.7-.4,1.41-.78,2.08-1.23.27-.18.53-.39.82-.55a1.55,1.55,0,0,0,.7-.59c.1-.2.09-.58-.22-.55a2.33,2.33,0,0,0-.79.37c-.51.28-1,.61-1.48.91s-1.07.73-1.65,1a15,15,0,0,1-1.84,1,23.09,23.09,0,0,1,.65-2.36,5.38,5.38,0,0,1,1-1.92,2.49,2.49,0,0,1,1.34-.75c.23,0,1.29-.27,1.44-.13a2.85,2.85,0,0,0-2.15-.42,2.37,2.37,0,0,0-1.84,1.21,6.75,6.75,0,0,0-.71,1.65,9.84,9.84,0,0,0-.37,1.62c-.1.63-.17,1.71-1,1.79.27-1.51.59-3,1-4.48a3.58,3.58,0,0,1,2-2.73,4.55,4.55,0,0,1,1.08-.2,12.84,12.84,0,0,1,1.31-.1,17.77,17.77,0,0,1,2.52.21c.23,0,.45.09.68.11s.39.08.53,0l.35-.26a3.59,3.59,0,0,1,.87-.34,6.74,6.74,0,0,1,2-.26c.68,0,1.37,0,2.06,0s1.35.1,2,.16,1.46.14,2.18.27a24.09,24.09,0,0,1,3.3.84,51.15,51.15,0,0,1,9,4.11c.69.39,1.33.86,2,1.26a6.41,6.41,0,0,1,.84.55,1.9,1.9,0,0,1,.34.25.61.61,0,0,1,.05.39c-.12,1.39-3.53-.23-3.21,1.17.18.78-.46,1.24-1.17,1.21-.2,0-.46-.16-.63,0a3.2,3.2,0,0,1-.82.61,2.75,2.75,0,0,1-1,.1c-.11,0-.37-.08-.46,0s-.11.23-.14.33a1.49,1.49,0,0,1-.46.74,2.94,2.94,0,0,1-.92.48c-.13.06-.15.19-.17.32a1.48,1.48,0,0,1-.19.48.87.87,0,0,1-.77.53,2.74,2.74,0,0,1,0,1.28c0,.1-.09.39-.22.4a.72.72,0,0,1-.34-.12,2.07,2.07,0,0,1,.2,1.73c-.13.33-.39.89-.83.57a3,3,0,0,1-.08,1.66c-.06.15-.22.38-.4.39s-.41-.33-.58-.43a5.19,5.19,0,0,1,.15,2.28c-.06.28-.19,1-.61.92s-.48-.38-.63-.6a9.4,9.4,0,0,1-.66-1c-.15-.32-.33-.63-.47-1,0-.11-.17-.56-.31-.57,0,.4.24.71.34,1.08a10.25,10.25,0,0,0,.49,1.33c.19.42.35.86.52,1.29a3.1,3.1,0,0,1,.3,1.31,1.94,1.94,0,0,1-.4,1.12.3.3,0,0,1-.38.09c-.14-.09-.16-.29-.24-.42-.26-.41-.41-.87-.64-1.29-.1-.19-.23-.36-.33-.55a2,2,0,0,0-.27-.5,1.45,1.45,0,0,0,.11.54c.07.22.11.46.19.68a12.17,12.17,0,0,1,.39,1.39,3.55,3.55,0,0,1-.06,2.54,1.72,1.72,0,0,1-.32.44c-.16.14-.3-.17-.34-.28l-.51-1.24c-.16-.39-.24-.79-.42-1.17,0-.06-.22-.71-.31-.71a18.11,18.11,0,0,1,.4,2c.11.69.24,1.38.32,2.07a3.61,3.61,0,0,1-.25,1.76,1.79,1.79,0,0,1-.39.66s-.39.2-.33.09.07,0,.07,0-.08,0-.09-.06.16.08,0,.06M23.43,44.5a.5.5,0,0,0,.65.75c.61-.44-.19-1.22-.68-.71l.05-.05-.09.09.07-.08c-.47.5.08-.08,0,0"/></svg>